<?xml version="1.0" encoding="UTF-8"?>
<svg id="_レイヤー_1" data-name="レイヤー 1" xmlns="http://www.w3.org/2000/svg" viewBox="0 0 311.29 188.7">
  <defs>
    <style>
      .cls-1 {
        fill: none;
      }

      .cls-1, .cls-2, .cls-3, .cls-4 {
        stroke: #231815;
        stroke-miterlimit: 10;
        stroke-width: 4px;
      }

      .cls-2 {
        stroke-linecap: round;
      }

      .cls-2, .cls-4 {
        fill: #fff;
      }

      .cls-5 {
        stroke-width: 0px;
      }

      .cls-5, .cls-3 {
        fill: #231815;
      }
    </style>
  </defs>
  <g>
    <path class="cls-5" d="M0,148.03c0-.52.42-.95.95-.95h13.39c2.83,0,5.12.8,6.87,2.41,1.74,1.61,2.61,3.86,2.61,6.77,0,2.5-.78,4.68-2.33,6.53-1.56,1.85-3.94,2.78-7.14,2.78H5.29c-.52,0-.95.42-.95.95v11.66c0,.52-.42.95-.95.95H.95c-.52,0-.95-.42-.95-.95v-30.15ZM16.84,151.49c-.95-.45-2.26-.68-3.92-.68h-7.63c-.52,0-.95.42-.95.95v9.21c0,.52.42.95.95.95h7.63c1.93,0,3.5-.41,4.71-1.24,1.21-.83,1.81-2.29,1.81-4.38,0-2.36-.87-3.96-2.6-4.8Z"/>
    <path class="cls-5" d="M41.47,156.41c1.55.78,2.72,1.79,3.53,3.02.78,1.18,1.3,2.55,1.56,4.12.2.92.31,2.31.34,4.18,0,.53-.42.97-.95.97h-15.02c-.56,0-1,.49-.95,1.05.19,1.89.72,3.45,1.6,4.67,1.04,1.44,2.65,2.15,4.83,2.15,2.03,0,3.66-.68,4.87-2.04.54-.63.96-1.35,1.25-2.14.13-.36.48-.6.87-.6h2c.64,0,1.1.62.9,1.22-.17.52-.42,1.07-.73,1.64-.57,1.05-1.22,1.92-1.92,2.58-1.18,1.16-2.65,1.95-4.39,2.36-.94.23-2,.35-3.18.35-2.89,0-5.34-1.06-7.35-3.17s-3.01-5.08-3.01-8.89,1.01-6.8,3.04-9.14c2.02-2.34,4.67-3.51,7.93-3.51,1.65,0,3.24.39,4.79,1.17ZM41.79,165.58c.59,0,1.04-.53.95-1.11-.2-1.19-.52-2.18-.96-2.97-1.07-1.89-2.85-2.84-5.34-2.84-1.79,0-3.29.65-4.5,1.95-.99,1.06-1.59,2.35-1.83,3.87-.09.57.37,1.09.95,1.09,2.4,0,8.29,0,10.73,0Z"/>
    <path class="cls-5" d="M52.3,155.77h1.6c.55,0,1,.45,1,1h0c0,.88,1.08,1.34,1.69.71.17-.18.36-.36.55-.54,1.19-1.13,2.62-1.3,4.12-1.69.51-.13,1.38.91,1.27.71v2.71s0,.78-.64.74c-.2-.01-5.17,1.15-6.17,3.51-.46,1.09-.63,2.28-.63,3.46v11.62c0,.63-.51,1.13-1.13,1.13h-1.66c-.63,0-1.13-.51-1.13-1.13v-21.09c0-.63.51-1.13,1.13-1.13Z"/>
    <path class="cls-5" d="M66.74,171.8c.68,0,1.24.49,1.39,1.15.17.76.45,1.38.82,1.86,1.01,1.27,2.76,1.9,5.25,1.9,1.48,0,2.79-.32,3.92-.95,1.13-.63,1.69-1.61,1.69-2.93,0-1-.45-1.77-1.35-2.29-.58-.32-1.71-.69-3.41-1.11l-3.17-.79c-2.02-.49-3.52-1.05-4.48-1.66-1.71-1.06-2.57-2.53-2.57-4.41,0-2.21.81-4,2.42-5.37s3.78-2.05,6.51-2.05c3.57,0,6.14,1.03,7.71,3.1.6.8,1.02,1.63,1.24,2.51s-.47,1.73-1.38,1.73h-.57c-.82,0-1.56-.51-1.86-1.27-.16-.4-.38-.78-.66-1.14-.92-1.03-2.52-1.54-4.8-1.54-1.52,0-2.67.28-3.45.85-.78.56-1.17,1.31-1.17,2.24,0,1.01.51,1.83,1.54,2.43.59.36,1.47.68,2.62.96l2.64.63c2.87.68,4.8,1.35,5.78,1.99,1.53,1,2.29,2.58,2.29,4.73s-.8,3.88-2.4,5.39-4.03,2.27-7.3,2.27c-3.52,0-6.01-.79-7.48-2.37-1.11-1.19-1.83-2.6-2.16-4.23-.18-.89.48-1.63,1.39-1.63h.98Z"/>
    <path class="cls-5" d="M104.59,158.1c2.07,2.01,3.1,4.95,3.1,8.85s-.91,6.87-2.73,9.33c-1.82,2.45-4.64,3.68-8.47,3.68-3.19,0-5.73-1.09-7.6-3.26-1.88-2.17-2.82-5.09-2.82-8.75,0-3.92.99-7.05,2.97-9.37,1.98-2.33,4.64-3.49,7.97-3.49,2.99,0,5.52,1,7.58,3.01ZM102.15,173.62c.96-1.97,1.43-4.16,1.43-6.57,0-2.18-.35-3.95-1.04-5.32-1.09-2.15-2.98-3.22-5.65-3.22-2.37,0-4.1.92-5.18,2.75-1.08,1.83-1.62,4.04-1.62,6.62s.54,4.55,1.62,6.21c1.08,1.66,2.79,2.48,5.13,2.48,2.57,0,4.34-.98,5.29-2.95Z"/>
    <path class="cls-5" d="M112.74,155.77h1.84c.52,0,.95.42.95.95h0c0,.82.95,1.26,1.56.73s1.28-.99,1.95-1.31c1.24-.6,2.61-.89,4.12-.89,3.32,0,5.56,1.16,6.72,3.47.64,1.27.96,3.08.96,5.43v14.04c0,.52-.42.95-.95.95h-2.1c-.52,0-.95-.42-.95-.95v-13.78c0-1.43-.21-2.57-.63-3.45-.7-1.45-1.96-2.18-3.8-2.18-.93,0-1.69.09-2.29.28-1.08.32-2.02.96-2.84,1.92-.65.77-1.08,1.57-1.28,2.39s-.29,2-.29,3.52v11.29c0,.52-.42.95-.95.95h-2.03c-.52,0-.95-.42-.95-.95v-21.47c0-.52.42-.95.95-.95Z"/>
    <path class="cls-5" d="M148.26,164.98c.9-.12,1.5-.5,1.81-1.14.17-.35.26-.85.26-1.51,0-1.34-.48-2.32-1.43-2.92-.95-.6-2.31-.9-4.08-.9-2.05,0-3.5.57-4.35,1.68-.37.48-.64,1.13-.81,1.97-.09.45-.48.77-.93.77h-1.83c-.57,0-1.02-.49-.96-1.06.25-2.32,1.15-3.98,2.71-4.97,1.79-1.14,3.87-1.71,6.24-1.72,2.74,0,4.98.51,6.69,1.55,1.7,1.04,2.56,2.67,2.56,4.88l.04,13.46c0,.41.09.73.25.98.17.25.52.37,1.06.37.17,0,.37-.03.59-.03.31-.01.7.32.7.32v1.76c0,.43-.29.81-.72.91-.27.07-.49.11-.67.14-.32.04-.76.07-1.31.07-1.35,0-2.34-.47-2.95-1.43-.11-.17-.2-.36-.29-.58-.25-.63-1.01-.82-1.52-.38-.64.56-1.42,1.08-2.31,1.54-1.5.78-3.14,1.17-4.95,1.17-2.17,0-3.94-.64-5.32-1.95s-2.07-2.95-2.08-4.93c0-2.16.66-3.84,2.01-5.04,1.35-1.2,3.12-1.93,5.32-2.22l6.26-.8ZM140.02,175.62c.83.65,1.81.97,2.95.97,1.38,0,2.72-.33,4.01-.97,2.18-1.07,3.26-2.81,3.25-5.22v-1.67c0-.66-.65-1.11-1.27-.9-.18.06-.38.12-.58.18-.75.21-1.49.35-2.22.44l-2.37.31c-1.42.19-2.49.49-3.21.9-1.21.69-1.82,1.78-1.81,3.27,0,1.13.42,2.02,1.25,2.67Z"/>
    <path class="cls-5" d="M160.87,147.08h2.05c.52,0,.94.42.94.94v30.17c0,.52-.42.94-.94.94h-2.05c-.52,0-.94-.42-.94-.94v-30.17c0-.52.42-.94.94-.94Z"/>
    <path class="cls-5" d="M169.99,147.08h2.05c.52,0,.94.42.94.94v30.17c0,.52-.42.94-.94.94h-2.05c-.52,0-.94-.42-.94-.94v-30.17c0-.52.42-.94.94-.94Z"/>
    <path class="cls-5" d="M193.53,155.77h2.31c.65,0,1.11.64.89,1.26-.66,1.83-1.74,4.83-3.23,9-1.43,4.02-2.62,7.29-3.58,9.82-2.27,5.96-3.86,9.59-4.79,10.9-.93,1.31-2.53,1.96-4.79,1.96-.55,0-.98-.02-1.28-.07-.24-.04-.54-.1-.87-.18-.13-.03-.23-.15-.23-.29v-2.14c0-.6.56-1.04,1.14-.92.13.03.24.05.34.06.3.04.57.07.81.07.73,0,1.26-.12,1.6-.36.34-.24.63-.53.86-.88.07-.12.33-.71.78-1.79.36-.87.65-1.56.85-2.06.09-.21.09-.45.01-.67l-8.07-22.45c-.22-.61.23-1.26.89-1.26h2.43c.41,0,.77.26.9.65l5.16,15.67c.28.86,1.5.86,1.79,0l5.19-15.67c.13-.39.49-.65.89-.65Z"/>
    <path class="cls-5" d="M248.6,149.42c1.91,1.84,3.08,3.9,3.53,6.17.11.58-.34,1.11-.93,1.11h-2.39c-.42,0-.81-.27-.93-.67-.51-1.75-1.39-3.16-2.64-4.24-1.41-1.21-3.38-1.81-5.92-1.81-3.1,0-5.6,1.11-7.51,3.33s-2.86,5.62-2.86,10.21c0,3.76.86,6.8,2.58,9.14s4.29,3.5,7.7,3.5c3.14,0,5.54-1.23,7.18-3.69.77-1.14,1.36-2.6,1.79-4.37.1-.43.48-.74.92-.74h2.39c.59,0,1.03.53.93,1.11-.5,2.89-1.69,5.34-3.55,7.37-2.52,2.75-5.91,4.12-10.18,4.12-3.68,0-6.77-1.13-9.27-3.38-3.29-2.98-4.94-7.59-4.94-13.82,0-4.73,1.24-8.61,3.71-11.64,2.67-3.29,6.36-4.93,11.06-4.93,4.01,0,7.12,1.07,9.34,3.21Z"/>
    <path class="cls-5" d="M269.18,165.43c.9-.12,1.51-.49,1.81-1.13.17-.35.26-.85.26-1.51,0-1.34-.48-2.32-1.43-2.92-.95-.61-2.31-.91-4.08-.91-2.05,0-3.5.56-4.35,1.67-.37.48-.64,1.14-.82,1.98-.09.44-.47.76-.92.76h-1.85c-.56,0-1-.49-.94-1.05.25-2.33,1.16-3.99,2.73-4.98,1.79-1.13,3.87-1.7,6.24-1.7,2.74,0,4.98.52,6.69,1.57,1.7,1.05,2.55,2.68,2.55,4.89v13.46c0,.41.08.73.25.98.17.25.53.5,1.06.37.88-.21,1.29.42,1.29.42v1.63c0,.44-.3.82-.73.92-.27.06-.49.11-.67.13-.32.04-.76.07-1.31.07-1.35,0-2.33-.48-2.94-1.44-.11-.18-.21-.37-.3-.6-.24-.62-.99-.82-1.49-.38-.65.57-1.43,1.08-2.33,1.55-1.5.77-3.15,1.16-4.95,1.16-2.17,0-3.94-.66-5.31-1.97s-2.06-2.96-2.06-4.94c0-2.16.68-3.84,2.03-5.03,1.35-1.19,3.13-1.92,5.32-2.2l6.26-.78ZM260.91,176.04c.83.65,1.81.98,2.94.98,1.38,0,2.72-.32,4.01-.96,2.18-1.06,3.27-2.79,3.27-5.21v-1.69c0-.65-.64-1.1-1.25-.89-.19.07-.39.13-.6.18-.75.2-1.5.35-2.22.44l-2.37.31c-1.42.19-2.49.49-3.21.89-1.21.68-1.82,1.77-1.82,3.26,0,1.13.41,2.02,1.24,2.68Z"/>
    <path class="cls-5" d="M282.04,148.75c.79-1.16,5.27-2.43,6.6-2.01.41.13.36.59.36.59l.1,2.51s.1.08-.61.41c-.34.16,0,0-.25.1-.17.07-.49-.02-.65-.02-1.21,0-1.93.31-2.16.93-.2.54-.32,1.79-.35,3.77,0,.52.41.95.94.95h2.05c.52,0,.93.42.93.93v1.23c0,.52-.42.93-.93.93h-2.06c-.52,0-.93.42-.93.93v18.29c0,.52-.42.93-.93.93h-2.01c-.52,0-.93-.42-.93-.93v-18.29c0-.52-.42-.93-.93-.93h-1.38c-.52,0-.93-.42-.93-.93v-1.23c0-.52.42-.93.93-.93h1.38c.52,0,.93-.42.93-.93v-2.73c.06-1.63.34-2.82.85-3.58Z"/>
    <path class="cls-5" d="M305.85,156.41c1.55.78,2.72,1.79,3.53,3.02.78,1.18,1.3,2.55,1.56,4.12.2.92.31,2.32.34,4.19,0,.52-.41.96-.94.96h-15.05c-.56,0-.99.49-.94,1.04.18,1.9.72,3.46,1.6,4.68,1.04,1.44,2.65,2.15,4.83,2.15,2.03,0,3.66-.68,4.87-2.04.55-.64.96-1.35,1.25-2.15.13-.36.48-.59.86-.59h2.01c.63,0,1.1.62.9,1.22-.17.52-.42,1.07-.73,1.65-.57,1.05-1.22,1.92-1.92,2.58-1.18,1.16-2.65,1.95-4.39,2.36-.94.23-2,.35-3.18.35-2.89,0-5.34-1.06-7.35-3.17s-3.01-5.08-3.01-8.89,1.01-6.8,3.03-9.14,4.67-3.51,7.93-3.51c1.65,0,3.24.39,4.79,1.17ZM306.2,165.58c.58,0,1.02-.52.93-1.09-.2-1.2-.52-2.2-.97-2.99-1.07-1.89-2.85-2.84-5.34-2.84-1.79,0-3.29.65-4.5,1.95-.99,1.06-1.6,2.36-1.83,3.9-.08.56.36,1.06.93,1.06h10.78Z"/>
  </g>
  <g>
    <path class="cls-2" d="M80.51,56s-22.04-11.99-13.81-23.13c0,0,5.57-4,12.72,4.36,0,0,12.47,9.93,13.44,10.17s27.61,4.72,27.73,11.99c.12,7.27,1.09,18.77-13.93,12.35"/>
    <path class="cls-2" d="M109.16,72.8s-2.61,11.97-21.66,2.62"/>
    <path class="cls-2" d="M96.37,72.93s-21.39,8.12-20.89-8.97"/>
    <path class="cls-2" d="M83.91,66.94c-1.21,0-23.78-1.76-14.74-17.95"/>
  </g>
  <polygon class="cls-3" points="235.62 65.75 227 60.78 235.62 55.8 235.62 65.75"/>
  <path class="cls-4" d="M175.32,83.62c3.43-17.39-24.31-9.51-32.89-21.46-8.26-11.51,11.6-31,13.07-32.43-30.23-30.93-68.46,4.93-47.45,48.11,12.02,24.71,46.93,48.97,47.5,48.06,0,.01.02.01.04.02v-.02s16.29-24.9,19.73-42.28Z"/>
  <path class="cls-3" d="M156.18,29.78s-.04-.04-.05-.05c-1.49,1.42-21.59,20.91-13.23,32.43,8.68,11.95,36.75,4.08,33.27,21.46-3.47,17.39-19.96,42.28-19.96,42.28v.02c1.38.32,36-23.66,48.02-48.08,21.27-43.2-17.46-79.09-48.06-48.06Z"/>
  <g>
    <line class="cls-3" x1="208.61" y1="21.88" x2="197.35" y2="35.04"/>
    <polygon class="cls-3" points="212.54 25.03 204.84 18.74 214.14 15.21 212.54 25.03"/>
  </g>
  <g>
    <line class="cls-3" x1="192.81" y1="11.26" x2="185.24" y2="26.84"/>
    <polygon class="cls-3" points="197.3 13.54 188.26 9.39 196.37 3.64 197.3 13.54"/>
  </g>
  <path class="cls-1" d="M185.15,102.3s20.44,16.13,27.16,1.41c6.72-14.72,18.92-40.32,18.92-40.32"/>
</svg>